<svg width="24" height="32" viewBox="0 0 24 32" fill="none" xmlns="http://www.w3.org/2000/svg">
<mask id="mask0_0_1471" style="mask-type:luminance" maskUnits="userSpaceOnUse" x="0" y="0" width="24" height="32">
<path fill-rule="evenodd" clip-rule="evenodd" d="M0 0H23.7105V32H0V0Z" fill="white"/>
</mask>
<g mask="url(#mask0_0_1471)">
<path fill-rule="evenodd" clip-rule="evenodd" d="M11.8153 26.4791C12.3768 26.4791 12.9384 26.4709 13.4996 26.4831C13.7296 26.4882 13.8116 26.4481 13.7523 26.1884C13.5462 25.2872 13.3696 24.3792 13.1718 23.4761C13.1215 23.2468 13.1379 23.098 13.3506 22.9258C14.4125 22.0657 14.4841 20.4784 13.5319 19.494C12.5975 18.528 11.0148 18.5518 10.1082 19.5454C9.19224 20.5494 9.30102 22.1143 10.3643 22.9513C10.5466 23.0949 10.5699 23.2215 10.5266 23.4206C10.3232 24.3544 10.1322 25.291 9.92749 26.2246C9.88522 26.4171 9.92492 26.4862 10.1309 26.4825C10.6922 26.4724 11.2538 26.479 11.8153 26.4791ZM11.8474 13.2522C13.6053 13.2522 15.3633 13.2473 17.1211 13.2577C17.3714 13.2592 17.4583 13.2058 17.4555 12.9369C17.4416 11.5631 17.454 10.189 17.4455 8.81508C17.4435 8.48325 17.4258 8.14665 17.3672 7.82089C16.8055 4.69399 14.0647 2.72709 10.9234 3.18636C8.5024 3.54024 6.46154 5.6955 6.28339 8.13789C6.16447 9.76857 6.26441 11.4049 6.23435 13.0383C6.22953 13.3013 6.39398 13.2515 6.54252 13.2517C8.31077 13.2525 10.0791 13.2522 11.8474 13.2522ZM23.7105 15V30.25C23.6962 30.2885 23.677 30.3259 23.6682 30.3657C23.4219 31.484 22.7869 31.9998 21.6516 31.9998C15.1146 32.0001 8.57761 32.0002 2.04055 31.9989C1.8746 31.9988 1.7054 32.0003 1.54321 31.9708C0.584903 31.7963 0.00176616 31.0519 0.00126518 29.9962C-0.000863967 25.0901 0.000200608 20.184 0.000826829 15.2779C0.000826829 15.1739 0.00326909 15.0694 0.0131008 14.9659C0.108412 13.9691 0.864761 13.2682 1.86352 13.2533C2.19648 13.2483 2.53026 13.2399 2.86253 13.2566C3.07945 13.2675 3.14884 13.1997 3.14483 12.979C3.13193 12.2813 3.13137 11.5832 3.14214 10.8854C3.15911 9.78253 3.04983 8.67274 3.22179 7.57792C3.76679 4.10784 5.70601 1.75651 8.97325 0.492171C9.6765 0.220016 10.4194 0.122451 11.1565 -3.8147e-05H12.5306C12.611 0.0182475 12.6904 0.0448619 12.7718 0.0535037C17.0814 0.508954 20.4272 4.10872 20.5328 8.43672C20.5696 9.94485 20.5493 11.4546 20.5417 12.9635C20.5406 13.1986 20.6058 13.2705 20.8398 13.2574C21.1923 13.2378 21.547 13.2442 21.9003 13.2557C22.7209 13.2825 23.4185 13.8463 23.6246 14.6386C23.6557 14.7584 23.682 14.8795 23.7105 15Z" fill="white"/>
</g>
</svg>
